<svg xmlns="http://www.w3.org/2000/svg" xmlns:xlink="http://www.w3.org/1999/xlink" width="500" zoomAndPan="magnify" viewBox="0 0 375 374.999991" height="500" preserveAspectRatio="xMidYMid meet" version="1.0"><defs><clipPath id="51728aa2bc"><path d="M 95 46 L 374 46 L 374 370.738281 L 95 370.738281 Z M 95 46 " clip-rule="nonzero"/></clipPath><clipPath id="5bf08f70c2"><path d="M 263 3.988281 L 339 3.988281 L 339 79 L 263 79 Z M 263 3.988281 " clip-rule="nonzero"/></clipPath></defs><path fill="#00bc77" d="M 21.222656 231.640625 L 1.082031 264.4375 C 38.625 258.503906 69.167969 263.585938 92.65625 279.710938 C 75.589844 257.046875 51.769531 241.011719 21.191406 231.640625 Z M 21.222656 231.640625 " fill-opacity="1" fill-rule="evenodd"/><path fill="#005934" d="M 4.644531 214.453125 C 48.300781 220.324219 82.191406 241.773438 106.285156 278.765625 C 100.261719 241.40625 81.339844 211.65625 49.457031 189.445312 Z M 4.644531 214.453125 " fill-opacity="1" fill-rule="evenodd"/><path fill="#00bc77" d="M 26.730469 153.058594 C 86.265625 191.453125 118.515625 244.296875 123.503906 311.53125 C 133.453125 258.503906 118.605469 210.984375 79.027344 168.972656 C 112.1875 159.449219 137.742188 136.9375 155.660156 101.433594 C 214.773438 204.382812 195.941406 286.644531 99.167969 348.253906 C 221.738281 305.78125 240.144531 176.304688 154.382812 61.152344 C 135.277344 125.132812 92.746094 155.769531 26.761719 153.058594 Z M 26.730469 153.058594 " fill-opacity="1" fill-rule="evenodd"/><g clip-path="url(#51728aa2bc)"><path fill="#005934" d="M 173.550781 46.886719 C 275.648438 176.089844 243.1875 322.453125 95.605469 371.007812 C 250.335938 362.0625 343.09375 263.222656 373.945312 74.476562 C 333.238281 129.664062 266.429688 120.476562 173.550781 46.886719 Z M 173.550781 46.886719 " fill-opacity="1" fill-rule="evenodd"/></g><g clip-path="url(#5bf08f70c2)"><path fill="#005934" d="M 301.171875 78.675781 C 321.738281 78.675781 338.53125 61.914062 338.53125 41.316406 C 338.53125 20.75 321.769531 3.957031 301.171875 3.957031 C 280.605469 3.957031 263.8125 20.722656 263.8125 41.316406 C 263.8125 61.882812 280.605469 78.675781 301.171875 78.675781 Z M 301.171875 78.675781 " fill-opacity="1" fill-rule="evenodd"/></g><path fill="#00bc77" d="M 156.816406 199.546875 C 158.035156 201.675781 157.394531 203.773438 154.839844 205.8125 L 150.0625 197.507812 C 152.011719 197.171875 153.5 197.171875 154.476562 197.476562 C 155.449219 197.8125 156.238281 198.480469 156.847656 199.515625 Z M 138.535156 190.449219 C 136.554688 190.785156 135.125 190.785156 134.183594 190.449219 C 133.238281 190.085938 132.507812 189.476562 131.992188 188.5625 C 131.445312 187.621094 131.292969 186.617188 131.566406 185.582031 C 131.839844 184.546875 132.601562 183.511719 133.9375 182.480469 L 138.5625 190.480469 Z M 165.214844 194.101562 C 163.296875 190.785156 160.742188 188.714844 157.546875 187.894531 C 154.351562 187.074219 150.15625 187.347656 144.953125 188.714844 L 139.78125 179.769531 C 141.210938 179.34375 142.730469 179.101562 144.3125 179.011719 C 145.894531 178.917969 147.507812 178.917969 149.152344 179.042969 L 149.121094 169.824219 C 146.839844 169.609375 144.585938 169.671875 142.367188 169.976562 C 140.144531 170.28125 137.894531 170.886719 135.550781 171.800781 L 133.511719 168.242188 L 127.335938 171.800781 L 129.316406 175.238281 C 127.582031 176.515625 126.121094 177.886719 124.933594 179.40625 C 123.746094 180.898438 122.894531 182.480469 122.410156 184.121094 C 121.890625 185.765625 121.738281 187.40625 121.921875 189.109375 C 122.105469 190.785156 122.683594 192.457031 123.625 194.132812 C 124.628906 195.863281 125.785156 197.234375 127.0625 198.269531 C 128.371094 199.273438 129.832031 199.972656 131.445312 200.367188 C 133.058594 200.761719 134.882812 200.855469 136.890625 200.640625 C 138.898438 200.457031 141.148438 200.03125 143.644531 199.394531 L 149.089844 208.824219 C 147.113281 209.496094 145.136719 209.859375 143.128906 209.921875 C 141.148438 209.980469 138.988281 209.890625 136.648438 209.585938 L 135.917969 219.015625 C 138.746094 219.382812 141.667969 219.351562 144.585938 218.925781 C 147.539062 218.5 150.398438 217.738281 153.136719 216.550781 L 156.605469 222.546875 L 162.78125 218.984375 L 159.402344 213.113281 C 161.199219 211.835938 162.660156 210.40625 163.84375 208.886719 C 165.03125 207.363281 165.851562 205.78125 166.371094 204.140625 C 166.886719 202.496094 167.039062 200.855469 166.886719 199.152344 C 166.734375 197.445312 166.15625 195.773438 165.214844 194.132812 Z M 165.214844 194.101562 " fill-opacity="1" fill-rule="evenodd"/></svg>